<svg width="616" height="661" fill="none" xmlns="http://www.w3.org/2000/svg"><path d="M57.827 22.417 12.567 1.7C7.5-.613 1.733 3.08 1.733 8.64l-.025 29.968c0 6.044 3.5 11.553 8.992 14.102l98.078 45.662a9.18 9.18 0 0 0 7.71.012l79.571-36.733c5.965-2.748 12.778 1.591 12.778 8.157v124.116a27.123 27.123 0 0 1-15.78 24.634L70.144 275.286c-5.966 2.748-12.778-1.592-12.778-8.158V141.993c0-7.275 7.56-12.087 14.173-9.028l30.662 14.213c4.297 1.99 4.297 8.096.013 10.085l-87.118 40.54a23.135 23.135 0 0 0-13.389 20.978l.038 337.488c0 4.924 5.118 8.182 9.59 6.106l40.327-18.777a14.734 14.734 0 0 1 12.392-.013l148.792 68.767c4.87 2.25 4.882 9.164.012 11.44l-91.452 42.553c-3.96 1.84-8.481-1.045-8.481-5.397v-52.464c0-10.557 6.14-20.157 15.73-24.609l140.809-65.284c5.318-2.462 11.395 1.405 11.395 7.262v112.264a9.181 9.181 0 0 0 5.318 8.332l41.984 19.56c3.886 1.803 8.332-1.02 8.332-5.297v-25.915a27.12 27.12 0 0 1 15.78-24.634l97.997-45.17c5.966-2.749 12.778 1.591 12.778 8.157v124.114a27.12 27.12 0 0 1-15.779 24.634l-98.023 45.158c-5.965 2.748-12.778-1.591-12.778-8.157v-27.917a14.425 14.425 0 0 0-8.332-13.069l-74.572-34.483c-4.658-2.176-10.001 1.219-10.001 6.355v135.629m42.593 15.49-149.602-69.649c-3.051-1.417-3.051-5.757 0-7.175l81.946-39.228c2.653-1.231 2.653-4.987 0-6.218l-41.921-19.511a16.697 16.697 0 0 0-14.123 0L2.529 773.585l111.33 51.829 271.368-125.781a13.094 13.094 0 0 0 7.597-11.875v-242.92c0-4.8-2.79-9.177-7.149-11.204l-42.096-19.597c-3.312-1.542-7.111.87-7.111 4.526l.025 78.901c0 8.219 8.556 13.666 16.016 10.184l196.443-91.473c4.757-2.213 10.2 1.256 10.2 6.492v131.14c0 5.77-6.003 9.587-11.246 7.15l-86.471-40.227a23.6 23.6 0 0 1-13.65-21.389v-76.762a18.541 18.541 0 0 1 10.736-16.812l88.189-41.06c4.733-2.202 4.72-8.916-.012-11.117l-143.014-66.118c-4.869-2.251-4.882-9.165-.012-11.44l91.452-42.553c3.961-1.841 8.482 1.044 8.482 5.397v77.334c0 10.557-6.14 20.157-15.73 24.609l-140.809 65.284c-5.318 2.462-11.396-1.405-11.396-7.262V261.707a9.181 9.181 0 0 0-5.318-8.332l-41.984-19.56c-3.885-1.803-8.332 1.019-8.332 5.297v25.915a27.122 27.122 0 0 1-15.779 24.634L125.79 353.59c-5.966 2.748-12.778-1.592-12.778-8.158V221.317a27.122 27.122 0 0 1 15.78-24.634l138.467-63.929c5.966-2.749 12.778 1.591 12.778 8.157v27.918a14.425 14.425 0 0 0 8.332 13.069l93.819 43.734c4.658 2.176 10.001-1.218 10.001-6.354V83.648c0-5.621-3.276-10.732-8.382-13.095L289.976 27.23c-4.658-2.15-9.976 1.244-9.976 6.367v30.168a16.72 16.72 0 0 0 9.677 15.158l149.602 69.649c3.051 1.418 3.051 5.758 0 7.175l-41.274 19.213c-2.653 1.231-2.653 4.987 0 6.218l41.921 19.511a16.7 16.7 0 0 0 14.124 0l159.951-74.413-111.33-51.83-271.368 125.758a13.094 13.094 0 0 0-7.597 11.875v242.92c0 4.8 2.79 9.177 7.149 11.204l42.096 19.597c3.313 1.542 7.111-.87 7.111-4.526l-.025-78.901c0-8.219-8.556-13.666-16.016-10.184l-196.443 91.46c-4.757 2.214-10.2-1.256-10.2-6.491v-131.14c0-5.77 6.003-9.588 11.247-7.151l86.47 40.228a23.6 23.6 0 0 1 13.65 21.388v76.762a18.54 18.54 0 0 1-10.736 16.812l-85.972 40.029" stroke="url(#a)" stroke-width="1.356" stroke-miterlimit="10"/><defs><linearGradient id="a" x1="284.098" y1="729.693" x2="284.098" y2="-271.84" gradientUnits="userSpaceOnUse"><stop stop-color="#0075FF" stop-opacity=".2"/><stop offset=".667" stop-color="#0500FF" stop-opacity="0"/></linearGradient></defs></svg>