<svg width="360" height="652" fill="none" xmlns="http://www.w3.org/2000/svg"><path d="m372.988 631.28 36.7 19.041c4.11 2.126 8.786-1.268 8.786-6.377l.02-27.545c0-5.554-2.838-10.617-7.292-12.96l-79.529-41.968c-1.979-1.04-4.261-1.052-6.251-.012L260.9 595.221c-4.837 2.526-10.361-1.463-10.361-7.497l-.001-114.077c0-9.726 4.989-18.561 12.796-22.641L363 398.866c4.838-2.526 10.362 1.463 10.362 7.498v115.013c0 6.686-6.13 11.109-11.493 8.297l-24.863-13.063c-3.485-1.829-3.485-7.441-.011-9.27l70.642-37.259c6.625-3.498 10.857-11.007 10.857-19.282l-.031-310.189c0-4.526-4.15-7.52-7.776-5.612l-32.7 17.258c-3.181 1.681-6.857 1.681-10.049.012L247.287 89.065c-3.949-2.069-3.959-8.423-.011-10.515l74.157-39.11c3.211-1.692 6.877.96 6.877 4.96v48.22c0 9.703-4.978 18.527-12.755 22.618l-114.178 60.004c-4.312 2.263-9.241-1.292-9.241-6.675V65.384c0-3.28-1.676-6.275-4.312-7.658l-34.043-17.978c-3.151-1.657-6.757.937-6.757 4.869v23.819c0 9.726-4.988 18.56-12.795 22.64l-79.464 41.517c-4.837 2.526-10.361-1.462-10.361-7.497V11.021c0-9.726 4.988-18.561 12.795-22.641l79.484-41.506c4.837-2.526 10.362 1.463 10.362 7.498v25.659c0 5.154 2.635 9.829 6.756 12.012l60.468 31.693c3.777 2 8.11-1.12 8.11-5.84v-124.659M187.842-121 309.15-56.985c2.474 1.303 2.474 5.292 0 6.595l-66.448 36.055c-2.151 1.132-2.151 4.583 0 5.715l33.993 17.932c3.625 1.92 7.826 1.92 11.452 0l129.68-68.438-90.274-47.637L107.507 8.844c-3.757 1.977-6.16 6.229-6.16 10.915v223.269c0 4.412 2.262 8.435 5.797 10.298l34.134 18.013c2.686 1.417 5.767-.8 5.767-4.161l-.021-72.518c0-7.555-6.938-12.561-12.987-9.361l-159.29 84.074c-3.858 2.034-8.271-1.154-8.271-5.966V142.874c0-5.303 4.867-8.812 9.12-6.572l70.116 36.974c6.756 3.566 11.068 11.235 11.068 19.658v70.553c0 6.629-3.393 12.652-8.705 15.452l-71.51 37.739c-3.838 2.023-3.828 8.195.01 10.218L92.54 387.665c3.948 2.069 3.959 8.424.01 10.515l-74.157 39.111c-3.211 1.692-6.877-.96-6.877-4.96v-71.079c0-9.703 4.979-18.526 12.755-22.618l114.178-60.003c4.313-2.263 9.241 1.291 9.241 6.674v126.042c0 3.28 1.676 6.274 4.312 7.657l34.044 17.979c3.151 1.657 6.756-.938 6.756-4.869v-23.819c0-9.726 4.989-18.561 12.795-22.641l112.28-58.758c4.838-2.526 10.362 1.463 10.362 7.498v114.075c0 9.726-4.989 18.561-12.796 22.641l-112.28 58.759c-4.837 2.526-10.361-1.463-10.361-7.498v-25.659c0-5.155-2.636-9.829-6.756-12.012l-76.076-40.197c-3.777-2-8.109 1.12-8.109 5.84v124.66c0 5.166 2.656 9.863 6.797 12.035l76.085 39.819c3.777 1.978 8.089-1.143 8.089-5.851v-27.728c0-5.977-3.06-11.406-7.847-13.932L63.678 515.331c-2.474-1.303-2.474-5.292 0-6.595l33.468-17.659c2.15-1.131 2.15-4.583 0-5.715L63.153 467.43c-3.626-1.92-7.827-1.92-11.452 0L-78 535.823l90.273 47.638L232.32 467.876c3.757-1.978 6.16-6.229 6.16-10.915v-223.27c0-4.412-2.262-8.435-5.796-10.298l-34.135-18.012c-2.686-1.418-5.766.8-5.766 4.16l.02 72.518c0 7.555 6.938 12.561 12.987 9.361l159.291-84.062c3.857-2.035 8.271 1.154 8.271 5.966v120.533c0 5.303-4.868 8.811-9.12 6.571l-70.117-36.973c-6.756-3.566-11.068-11.235-11.068-19.658v-70.553c0-6.629 3.393-12.652 8.705-15.452l69.713-36.791" stroke="url(#a)" stroke-miterlimit="10"/><defs><linearGradient id="a" x1="189.51" y1="-18.785" x2="189.51" y2="420.978" gradientUnits="userSpaceOnUse"><stop stop-color="#053CB9"/><stop offset="1" stop-color="#0444C5" stop-opacity="0"/></linearGradient></defs></svg>