<svg width="173" height="43" fill="none" xmlns="http://www.w3.org/2000/svg"><mask id="a" style="mask-type:alpha" maskUnits="userSpaceOnUse" x="0" y="0" width="173" height="43"><path d="M160.5 42.5 173 0H12.5L0 42.5h160.5Z" fill="#C4C4C4"/></mask><g clip-path="url(#b)" mask="url(#a)"><path d="m17.727 16.292-1.313 4.797 7.513-4.824-4.914 18.202 4.99.004 7.259-26.885" fill="#3395FF"/><path d="m9.645 26.82-2.067 7.653h10.228l4.185-15.567-12.346 7.915Zm35.526-6.736c-.25.922-.731 1.6-1.45 2.033-.716.432-1.722.648-3.02.648h-4.125l1.448-5.361h4.125c1.297 0 2.188.215 2.67.653.484.439.6 1.109.352 2.036v-.01Zm4.271-.107c.525-1.936.309-3.426-.651-4.468-.959-1.035-2.64-1.556-5.04-1.556h-9.206l-5.542 20.529h4.473l2.233-8.274h2.933c.659 0 1.177.107 1.555.314.38.215.602.587.67 1.125l.799 6.835h4.791l-.776-6.371c-.159-1.424-.814-2.26-1.967-2.508 1.47-.422 2.7-1.125 3.692-2.101a7.65 7.65 0 0 0 2.036-3.517v-.008Zm10.872 7.157c-.375 1.39-.95 2.441-1.727 3.178-.779.736-1.709 1.1-2.794 1.1-1.105 0-1.854-.356-2.25-1.075-.396-.72-.41-1.763-.041-3.128.368-1.366.955-2.433 1.764-3.203.808-.769 1.753-1.154 2.838-1.154 1.083 0 1.825.373 2.2 1.111.383.743.392 1.804.017 3.186l-.007-.015Zm1.96-7.265-.56 2.077c-.242-.745-.71-1.34-1.404-1.787-.695-.439-1.555-.662-2.581-.662-1.258 0-2.467.323-3.625.968s-2.175 1.556-3.042 2.73c-.866 1.176-1.5 2.508-1.908 4.006-.4 1.505-.483 2.821-.242 3.963.25 1.15.775 2.027 1.584 2.64.816.62 1.858.926 3.133.926a6.909 6.909 0 0 0 2.933-.637 6.84 6.84 0 0 0 2.367-1.754l-.583 2.165h4.325l3.949-14.627h-4.334l-.012-.008Zm19.888 0H69.584l-.88 3.26h7.32l-9.676 8.3-.826 3.061h12.983l.879-3.26h-7.842l9.824-8.423.796-2.938Zm11.07 7.24c-.389 1.44-.966 2.522-1.729 3.227-.762.712-1.686 1.068-2.77 1.068-2.267 0-3.011-1.432-2.238-4.295.383-1.423.963-2.493 1.738-3.213.775-.724 1.714-1.084 2.819-1.084 1.083 0 1.814.358 2.191 1.08.377.72.374 1.793-.01 3.216v.001Zm2.532-6.69c-.996-.615-2.267-.923-3.817-.923-1.569 0-3.021.306-4.358.919a9.415 9.415 0 0 0-3.417 2.652c-.941 1.15-1.619 2.5-2.035 4.038-.408 1.534-.458 2.88-.141 4.032.316 1.15.983 2.036 1.983 2.648 1.008.618 2.292.925 3.867.925 1.55 0 2.991-.31 4.316-.926a9.508 9.508 0 0 0 3.4-2.656c.942-1.153 1.617-2.498 2.034-4.038.416-1.539.466-2.882.15-4.038-.317-1.15-.975-2.035-1.967-2.651l-.015.019Zm15.44 3.357 1.108-3.98c-.375-.19-.866-.29-1.483-.29a5.94 5.94 0 0 0-2.858.737c-.789.419-1.459 1.01-2.025 1.75l.575-2.143-1.256.004h-3.084l-3.974 14.621h4.385l2.063-7.643c.3-1.111.84-1.986 1.619-2.606.775-.623 1.742-.935 2.908-.935.717 0 1.384.163 2.017.488l.005-.003Zm12.203 3.404c-.375 1.365-.941 2.408-1.716 3.128-.775.723-1.709 1.084-2.792 1.084-1.083 0-1.825-.365-2.217-1.093-.4-.732-.408-1.787-.033-3.174.375-1.386.95-2.45 1.742-3.186a3.963 3.963 0 0 1 2.808-1.112c1.067 0 1.783.38 2.167 1.15.383.77.391 1.837.023 3.202h.018Zm3.049-6.736c-.813-.646-1.85-.968-3.109-.968a6.92 6.92 0 0 0-3.15.75 6.56 6.56 0 0 0-2.425 2.046l.015-.1.736-2.324h-4.283l-1.092 4.046-.033.14-4.5 16.669h4.391l2.267-8.39c.225.746.683 1.332 1.383 1.755.7.422 1.565.632 2.592.632a7.677 7.677 0 0 0 3.646-.919c1.158-.614 2.158-1.498 3.008-2.64.85-1.141 1.481-2.465 1.884-3.963.408-1.5.491-2.838.258-4.009-.238-1.172-.763-2.08-1.575-2.722l-.013-.003Zm14.567 6.676c-.375 1.382-.95 2.441-1.725 3.17-.775.732-1.708 1.097-2.792 1.097-1.108 0-1.858-.355-2.25-1.075-.4-.72-.408-1.763-.041-3.128.366-1.365.951-2.433 1.76-3.202.808-.77 1.754-1.154 2.839-1.154 1.083 0 1.817.373 2.2 1.109.383.739.386 1.8.012 3.186l-.003-.003Zm1.958-7.269-.56 2.077c-.242-.749-.709-1.345-1.4-1.787-.7-.442-1.559-.662-2.584-.662-1.258 0-2.473.323-3.633.968-1.158.645-2.175 1.55-3.042 2.722-.866 1.172-1.5 2.507-1.908 4.005-.404 1.503-.483 2.822-.242 3.968.244 1.142.77 2.024 1.584 2.64.811.612 1.858.922 3.133.922a6.97 6.97 0 0 0 2.933-.637 6.852 6.852 0 0 0 2.361-1.757l-.583 2.166h4.325l3.948-14.62h-4.325l-.007-.005Zm22.49.005.002-.004h-2.658c-.085 0-.16.004-.238.006h-1.379l-.708.976-.175.232-.075.116-5.604 7.751-1.159-9.077h-4.59l2.325 13.794-5.133 7.058h4.575l1.242-1.749c.035-.051.066-.094.108-.149l1.45-2.044.042-.057 6.494-9.144 5.475-7.695.008-.005h-.002v-.009Z" fill="#fff"/></g><defs><clipPath id="b"><path d="M7.5 24.132C7.5 14.946 14.946 7.5 24.132 7.5h124.736c9.186 0 16.632 7.446 16.632 16.632v16.631H7.5V24.132Z" fill="#fff"/></clipPath></defs></svg>